<svg width="19" height="26" viewBox="0 0 19 26" fill="none" xmlns="http://www.w3.org/2000/svg">
<path d="M11.127 10.0088C11.1328 10.0128 11.1437 10.021 11.1523 10.0469L12.1729 13.1133V13.1143C12.4222 13.862 12.8429 14.5414 13.4004 15.0986C13.9578 15.6557 14.6371 16.0753 15.3848 16.3242L18.4502 17.3457C18.4757 17.3542 18.4843 17.3642 18.4883 17.3701C18.4943 17.379 18.4999 17.3944 18.5 17.4141C18.5 17.4337 18.4943 17.449 18.4883 17.458C18.4843 17.4639 18.476 17.4748 18.4502 17.4834L15.3838 18.5039C14.6361 18.7532 13.9566 19.174 13.3994 19.7314C12.8422 20.289 12.4218 20.9688 12.1729 21.7168L11.1523 24.7822L11.1514 24.7842C11.1467 24.7985 11.1372 24.8105 11.125 24.8193C11.1128 24.8282 11.098 24.833 11.083 24.833C11.0681 24.8329 11.0531 24.8281 11.041 24.8193C11.0291 24.8105 11.0203 24.7983 11.0156 24.7842L11.0146 24.7822L9.99316 21.7148C9.74401 20.9673 9.32473 20.2877 8.76758 19.7305C8.28004 19.2429 7.69898 18.8604 7.06055 18.6055L6.7832 18.5039L3.7168 17.4834L3.71484 17.4824L3.67871 17.4561C3.67001 17.4439 3.66504 17.429 3.66504 17.4141C3.6651 17.3991 3.66993 17.3842 3.67871 17.3721C3.68755 17.3599 3.70057 17.3514 3.71484 17.3467L3.7168 17.3457L6.7832 16.3242C7.5308 16.075 8.21037 15.6549 8.76758 15.0977C9.32465 14.5404 9.74406 13.8608 9.99316 13.1133L11.0146 10.0469C11.0231 10.0215 11.0331 10.0129 11.0391 10.0088C11.0479 10.0028 11.0634 9.99715 11.083 9.99707C11.1026 9.99707 11.118 10.0028 11.127 10.0088ZM5.21484 3.81348C5.53848 4.78261 6.29855 5.54244 7.26758 5.86621H7.26855L8.66309 6.33105L7.26855 6.79492C6.79008 6.95375 6.35552 7.22262 5.99902 7.5791C5.64262 7.93554 5.3737 8.37025 5.21484 8.84863L4.75 10.2422L4.28613 8.84863C4.12728 8.37033 3.85927 7.9355 3.50293 7.5791C3.14638 7.22251 2.71101 6.95377 2.23242 6.79492H2.23145L0.838867 6.33105L2.2334 5.86621L2.23242 5.86523C2.71093 5.70638 3.14642 5.43955 3.50293 5.08301C3.85927 4.72663 4.12727 4.29175 4.28613 3.81348L4.75 2.41895L5.21484 3.81348ZM15.9834 1.53809C16.2007 2.19163 16.6949 2.71218 17.3301 2.96582L17.459 3.01367L17.9111 3.16406L17.459 3.31543H17.458C17.1151 3.43023 16.8036 3.62324 16.5479 3.87891C16.292 4.13475 16.0992 4.44693 15.9844 4.79004L15.9834 4.79102L15.832 5.24316L15.6816 4.79102V4.79004C15.5668 4.4469 15.374 4.13477 15.1182 3.87891C14.8623 3.62309 14.5501 3.43023 14.207 3.31543L13.7549 3.16406L14.208 3.01367C14.9054 2.78184 15.4518 2.23457 15.6836 1.53711L15.833 1.08691L15.9834 1.53809Z" fill="url(#paint0_linear_40_41)" stroke="url(#paint1_linear_40_41)"/>
<defs>
<linearGradient id="paint0_linear_40_41" x1="-4.33384e-07" y1="0.166666" x2="19" y2="25.1667" gradientUnits="userSpaceOnUse">
<stop stop-color="#00FFF2" stop-opacity="0.94902"/>
<stop offset="1" stop-color="#003CFF"/>
</linearGradient>
<linearGradient id="paint1_linear_40_41" x1="-4.33384e-07" y1="0.166666" x2="19" y2="25.1667" gradientUnits="userSpaceOnUse">
<stop stop-color="#00FFF2"/>
<stop offset="1" stop-color="#003CFF"/>
</linearGradient>
</defs>
</svg>
