<svg width="34" height="28" viewBox="0 0 34 28" fill="none" xmlns="http://www.w3.org/2000/svg">
<path d="M19.5 1C16.019 1 12.6806 2.38281 10.2192 4.84422C7.75781 7.30564 6.375 10.644 6.375 14.125H2L7.67292 19.7979L7.775 20.0021L13.6667 14.125H9.29167C9.29167 8.48125 13.8562 3.91667 19.5 3.91667C25.1437 3.91667 29.7083 8.48125 29.7083 14.125C29.7083 19.7687 25.1437 24.3333 19.5 24.3333C16.6854 24.3333 14.1333 23.1812 12.2958 21.3292L10.225 23.4C11.4402 24.6224 12.8855 25.5919 14.4774 26.2527C16.0693 26.9135 17.7764 27.2525 19.5 27.25C22.981 27.25 26.3194 25.8672 28.7808 23.4058C31.2422 20.9444 32.625 17.606 32.625 14.125C32.625 10.644 31.2422 7.30564 28.7808 4.84422C26.3194 2.38281 22.981 1 19.5 1ZM18.0417 8.29167V15.5833L24.2396 19.2583L25.3625 17.3917L20.2292 14.3437V8.29167H18.0417Z" fill="white" stroke="white"/>
</svg>
